<svg xmlns="http://www.w3.org/2000/svg" viewBox="0 0 100 100">
  <rect width="100" height="100" fill="#87ceeb"/>
  <rect x="0" y="78" width="100" height="22" fill="#5a9c4f"/>
  <rect x="0" y="78" width="100" height="4" fill="#6bbf5e"/>
  <rect x="44" y="52" width="12" height="28" fill="#7a5230"/>
  <rect x="36" y="44" width="28" height="12" fill="#2d6a4f"/>
  <rect x="30" y="32" width="40" height="16" fill="#40916c"/>
  <rect x="36" y="20" width="28" height="16" fill="#52b788"/>
  <rect x="42" y="10" width="16" height="14" fill="#74c69d"/>
  <rect x="42" y="22" width="8" height="4" fill="#95d5b2" opacity="0.7"/>
  <rect x="18" y="72" width="4" height="8" fill="#4a8c3f"/>
  <rect x="14" y="68" width="4" height="4" fill="#f9c74f"/>
  <rect x="22" y="68" width="4" height="4" fill="#f9c74f"/>
  <rect x="18" y="64" width="4" height="4" fill="#f9c74f"/>
  <rect x="18" y="72" width="4" height="4" fill="#f9c74f"/>
  <rect x="18" y="68" width="4" height="4" fill="#fff9c4"/>
  <rect x="74" y="72" width="4" height="8" fill="#4a8c3f"/>
  <rect x="70" y="68" width="4" height="4" fill="#f72585"/>
  <rect x="78" y="68" width="4" height="4" fill="#f72585"/>
  <rect x="74" y="64" width="4" height="4" fill="#f72585"/>
  <rect x="74" y="72" width="4" height="4" fill="#f72585"/>
  <rect x="74" y="68" width="4" height="4" fill="#fff9c4"/>
  <rect x="56" y="74" width="6" height="6" fill="#efebe9"/>
  <rect x="52" y="70" width="14" height="6" fill="#e53935"/>
  <rect x="53" y="70" width="4" height="2" fill="white" opacity="0.8"/>
  <rect x="24" y="42" width="4" height="4" fill="#4cc9f0" opacity="0.9"/>
  <rect x="28" y="42" width="4" height="4" fill="#4cc9f0" opacity="0.9"/>
  <rect x="26" y="44" width="4" height="4" fill="#4361ee" opacity="0.85"/>
  <rect x="8" y="74" width="2" height="6" fill="#5ab84f"/>
  <rect x="84" y="74" width="2" height="6" fill="#5ab84f"/>
  <rect x="74" y="10" width="14" height="14" fill="#ffe066"/>
  <rect x="76" y="12" width="10" height="10" fill="#fff9c4"/>
</svg>